<mxfile host="app.diagrams.net" agent="Mozilla/5.0 (Macintosh; Intel Mac OS X 10_15_7) AppleWebKit/537.36 (KHTML, like Gecko) Chrome/133.0.0.0 Safari/537.36" version="26.2.2">
  <diagram name="第 1 页" id="PNBVjHMSAQ1SMBJpJoWd">
    <mxGraphModel dx="927" dy="617" grid="0" gridSize="10" guides="1" tooltips="1" connect="1" arrows="1" fold="1" page="0" pageScale="1" pageWidth="827" pageHeight="1169" math="0" shadow="0">
      <root>
        <mxCell id="0" />
        <mxCell id="1" parent="0" />
        <mxCell id="LgRfhtLdMOxysmG16PW7-57" value="" style="rounded=1;whiteSpace=wrap;html=1;fillColor=#647687;strokeColor=#314354;fontColor=#ffffff;" vertex="1" parent="1">
          <mxGeometry x="565" y="241" width="367" height="170" as="geometry" />
        </mxCell>
        <mxCell id="LgRfhtLdMOxysmG16PW7-56" value="" style="rounded=1;whiteSpace=wrap;html=1;fillColor=#647687;fontColor=#ffffff;strokeColor=#314354;" vertex="1" parent="1">
          <mxGeometry x="565" y="61" width="367" height="170" as="geometry" />
        </mxCell>
        <mxCell id="LgRfhtLdMOxysmG16PW7-32" style="edgeStyle=orthogonalEdgeStyle;rounded=0;orthogonalLoop=1;jettySize=auto;html=1;exitX=1;exitY=0.75;exitDx=0;exitDy=0;entryX=0;entryY=0.5;entryDx=0;entryDy=0;dashed=1;" edge="1" parent="1" source="LgRfhtLdMOxysmG16PW7-33" target="LgRfhtLdMOxysmG16PW7-50">
          <mxGeometry relative="1" as="geometry">
            <Array as="points">
              <mxPoint x="380" y="317" />
            </Array>
          </mxGeometry>
        </mxCell>
        <mxCell id="LgRfhtLdMOxysmG16PW7-33" value="" style="whiteSpace=wrap;html=1;aspect=fixed;strokeColor=#314354;fillColor=#647687;fontColor=#ffffff;rounded=1;" vertex="1" parent="1">
          <mxGeometry x="46" y="68" width="336" height="336" as="geometry" />
        </mxCell>
        <mxCell id="LgRfhtLdMOxysmG16PW7-34" value="" style="edgeStyle=orthogonalEdgeStyle;rounded=0;orthogonalLoop=1;jettySize=auto;html=1;entryX=0;entryY=0.5;entryDx=0;entryDy=0;" edge="1" parent="1" source="LgRfhtLdMOxysmG16PW7-35" target="LgRfhtLdMOxysmG16PW7-36">
          <mxGeometry relative="1" as="geometry">
            <mxPoint x="261" y="229" as="targetPoint" />
          </mxGeometry>
        </mxCell>
        <mxCell id="LgRfhtLdMOxysmG16PW7-35" value="" style="rounded=1;whiteSpace=wrap;html=1;fillColor=#dae8fc;strokeColor=#6c8ebf;" vertex="1" parent="1">
          <mxGeometry x="61" y="95" width="120" height="268" as="geometry" />
        </mxCell>
        <mxCell id="LgRfhtLdMOxysmG16PW7-36" value="Feedback &lt;br&gt;&lt;br&gt;SDK" style="rounded=1;whiteSpace=wrap;html=1;fillColor=#fff2cc;strokeColor=#d6b656;" vertex="1" parent="1">
          <mxGeometry x="245" y="94" width="120" height="270" as="geometry" />
        </mxCell>
        <mxCell id="LgRfhtLdMOxysmG16PW7-37" style="edgeStyle=orthogonalEdgeStyle;rounded=0;orthogonalLoop=1;jettySize=auto;html=1;exitX=1;exitY=0.5;exitDx=0;exitDy=0;" edge="1" parent="1" source="LgRfhtLdMOxysmG16PW7-39" target="LgRfhtLdMOxysmG16PW7-51">
          <mxGeometry relative="1" as="geometry" />
        </mxCell>
        <mxCell id="LgRfhtLdMOxysmG16PW7-38" style="edgeStyle=orthogonalEdgeStyle;rounded=1;orthogonalLoop=1;jettySize=auto;html=1;exitX=0;exitY=0.5;exitDx=0;exitDy=0;entryX=0.007;entryY=0.623;entryDx=0;entryDy=0;entryPerimeter=0;curved=0;endArrow=none;startFill=0;" edge="1" parent="1" source="LgRfhtLdMOxysmG16PW7-39" target="LgRfhtLdMOxysmG16PW7-48">
          <mxGeometry relative="1" as="geometry">
            <Array as="points">
              <mxPoint x="578" y="119" />
              <mxPoint x="578" y="197" />
            </Array>
          </mxGeometry>
        </mxCell>
        <mxCell id="LgRfhtLdMOxysmG16PW7-39" value="EC2&lt;br&gt;Flask server" style="rounded=1;whiteSpace=wrap;html=1;fillColor=#e1d5e7;strokeColor=#9673a6;" vertex="1" parent="1">
          <mxGeometry x="633" y="89" width="143" height="60" as="geometry" />
        </mxCell>
        <mxCell id="LgRfhtLdMOxysmG16PW7-40" value="TSP SSP" style="rounded=1;whiteSpace=wrap;html=1;fillColor=#f5f5f5;strokeColor=#666666;fontColor=#333333;" vertex="1" parent="1">
          <mxGeometry x="68" y="119" width="106" height="43" as="geometry" />
        </mxCell>
        <mxCell id="LgRfhtLdMOxysmG16PW7-41" value="OPCP" style="rounded=1;whiteSpace=wrap;html=1;fillColor=#d5e8d4;strokeColor=#82b366;" vertex="1" parent="1">
          <mxGeometry x="68" y="198" width="106" height="43" as="geometry" />
        </mxCell>
        <mxCell id="LgRfhtLdMOxysmG16PW7-42" value="TLP SSP" style="rounded=1;whiteSpace=wrap;html=1;fillColor=#ffe6cc;strokeColor=#d79b00;" vertex="1" parent="1">
          <mxGeometry x="68" y="274" width="106" height="43" as="geometry" />
        </mxCell>
        <mxCell id="LgRfhtLdMOxysmG16PW7-43" value="&lt;font style=&quot;font-size: 18px&quot;&gt;&lt;b&gt;&amp;nbsp;Frontend&lt;/b&gt;&lt;/font&gt;" style="text;html=1;strokeColor=none;fillColor=none;align=center;verticalAlign=middle;whiteSpace=wrap;rounded=0;" vertex="1" parent="1">
          <mxGeometry x="132" y="12" width="152" height="56" as="geometry" />
        </mxCell>
        <mxCell id="LgRfhtLdMOxysmG16PW7-44" value="&lt;b&gt;&lt;font style=&quot;font-size: 20px&quot;&gt;Backend&lt;/font&gt;&lt;/b&gt;" style="text;html=1;strokeColor=none;fillColor=none;align=center;verticalAlign=middle;whiteSpace=wrap;rounded=0;" vertex="1" parent="1">
          <mxGeometry x="740" y="32" width="40" height="20" as="geometry" />
        </mxCell>
        <mxCell id="LgRfhtLdMOxysmG16PW7-45" value="other app..." style="text;html=1;strokeColor=none;fillColor=none;align=center;verticalAlign=middle;whiteSpace=wrap;rounded=0;" vertex="1" parent="1">
          <mxGeometry x="85.5" y="330" width="71" height="20" as="geometry" />
        </mxCell>
        <mxCell id="LgRfhtLdMOxysmG16PW7-46" value="NLB" style="text;html=1;strokeColor=none;fillColor=none;align=center;verticalAlign=middle;whiteSpace=wrap;rounded=0;shadow=0;glass=0;comic=0;" vertex="1" parent="1">
          <mxGeometry x="469.5" y="94" width="40" height="20" as="geometry" />
        </mxCell>
        <mxCell id="LgRfhtLdMOxysmG16PW7-47" style="edgeStyle=orthogonalEdgeStyle;rounded=0;orthogonalLoop=1;jettySize=auto;html=1;exitX=1;exitY=0.5;exitDx=0;exitDy=0;entryX=0;entryY=0.7;entryDx=0;entryDy=0;" edge="1" parent="1" source="LgRfhtLdMOxysmG16PW7-48" target="LgRfhtLdMOxysmG16PW7-51">
          <mxGeometry relative="1" as="geometry">
            <mxPoint x="842" y="175" as="targetPoint" />
            <Array as="points">
              <mxPoint x="808" y="193" />
              <mxPoint x="808" y="170" />
            </Array>
          </mxGeometry>
        </mxCell>
        <mxCell id="LgRfhtLdMOxysmG16PW7-48" value="EC2&lt;br&gt;Flask server" style="rounded=1;whiteSpace=wrap;html=1;fillColor=#e1d5e7;strokeColor=#9673a6;" vertex="1" parent="1">
          <mxGeometry x="634" y="162" width="144" height="54" as="geometry" />
        </mxCell>
        <mxCell id="LgRfhtLdMOxysmG16PW7-49" style="edgeStyle=orthogonalEdgeStyle;rounded=0;orthogonalLoop=1;jettySize=auto;html=1;exitX=1;exitY=0.5;exitDx=0;exitDy=0;" edge="1" parent="1" source="LgRfhtLdMOxysmG16PW7-50" target="LgRfhtLdMOxysmG16PW7-52">
          <mxGeometry relative="1" as="geometry" />
        </mxCell>
        <mxCell id="LgRfhtLdMOxysmG16PW7-50" value="Serverless" style="rounded=1;whiteSpace=wrap;html=1;shadow=0;glass=0;comic=0;strokeColor=#9673a6;fillColor=#e1d5e7;" vertex="1" parent="1">
          <mxGeometry x="642" y="292" width="136" height="60" as="geometry" />
        </mxCell>
        <mxCell id="LgRfhtLdMOxysmG16PW7-51" value="RDS" style="shape=cylinder;whiteSpace=wrap;html=1;boundedLbl=1;backgroundOutline=1;rounded=1;shadow=0;glass=0;comic=0;strokeColor=#C2C2C2;" vertex="1" parent="1">
          <mxGeometry x="846" y="118" width="60" height="74" as="geometry" />
        </mxCell>
        <mxCell id="LgRfhtLdMOxysmG16PW7-52" value="RDS" style="shape=cylinder;whiteSpace=wrap;html=1;boundedLbl=1;backgroundOutline=1;rounded=1;shadow=0;glass=0;comic=0;strokeColor=#C2C2C2;" vertex="1" parent="1">
          <mxGeometry x="848" y="282" width="60" height="80" as="geometry" />
        </mxCell>
        <mxCell id="LgRfhtLdMOxysmG16PW7-53" value="" style="points=[];aspect=fixed;html=1;align=center;shadow=0;dashed=0;fillColor=#FF6A00;strokeColor=none;shape=mxgraph.alibaba_cloud.nlb_network_load_balancer_02;" vertex="1" parent="1">
          <mxGeometry x="454" y="118" width="71" height="71" as="geometry" />
        </mxCell>
        <mxCell id="LgRfhtLdMOxysmG16PW7-54" style="edgeStyle=orthogonalEdgeStyle;rounded=0;orthogonalLoop=1;jettySize=auto;html=1;exitX=1;exitY=0.25;exitDx=0;exitDy=0;" edge="1" parent="1" source="LgRfhtLdMOxysmG16PW7-33">
          <mxGeometry relative="1" as="geometry">
            <mxPoint x="453" y="152" as="targetPoint" />
          </mxGeometry>
        </mxCell>
        <mxCell id="LgRfhtLdMOxysmG16PW7-55" value="" style="endArrow=classic;html=1;rounded=0;" edge="1" parent="1">
          <mxGeometry width="50" height="50" relative="1" as="geometry">
            <mxPoint x="525" y="153" as="sourcePoint" />
            <mxPoint x="577" y="153.5" as="targetPoint" />
          </mxGeometry>
        </mxCell>
        <mxCell id="LgRfhtLdMOxysmG16PW7-58" value="" style="sketch=0;points=[[0,0,0],[0.25,0,0],[0.5,0,0],[0.75,0,0],[1,0,0],[0,1,0],[0.25,1,0],[0.5,1,0],[0.75,1,0],[1,1,0],[0,0.25,0],[0,0.5,0],[0,0.75,0],[1,0.25,0],[1,0.5,0],[1,0.75,0]];outlineConnect=0;fontColor=#232F3E;fillColor=#8C4FFF;strokeColor=#ffffff;dashed=0;verticalLabelPosition=bottom;verticalAlign=top;align=center;html=1;fontSize=12;fontStyle=0;aspect=fixed;shape=mxgraph.aws4.resourceIcon;resIcon=mxgraph.aws4.serverless;" vertex="1" parent="1">
          <mxGeometry x="686" y="250" width="56.5" height="56.5" as="geometry" />
        </mxCell>
        <mxCell id="LgRfhtLdMOxysmG16PW7-59" value="solution2" style="text;html=1;align=center;verticalAlign=middle;whiteSpace=wrap;rounded=0;" vertex="1" parent="1">
          <mxGeometry x="459.5" y="330" width="60" height="30" as="geometry" />
        </mxCell>
        <mxCell id="LgRfhtLdMOxysmG16PW7-60" value="solution1" style="text;html=1;align=center;verticalAlign=middle;whiteSpace=wrap;rounded=0;" vertex="1" parent="1">
          <mxGeometry x="459.5" y="189" width="60" height="30" as="geometry" />
        </mxCell>
      </root>
    </mxGraphModel>
  </diagram>
</mxfile>
